<svg xmlns="http://www.w3.org/2000/svg" xmlns:xlink="http://www.w3.org/1999/xlink" contentStyleType="text/css" data-diagram-type="CLASS" height="681px" preserveAspectRatio="none" style="width:1067px;height:681px;background:#FFFFFF;" version="1.1" viewBox="0 0 1067 681" width="1067px" zoomAndPan="magnify"><?plantuml 1.2026.3beta6?><defs/><g><g class="title" data-source-line="7"><text fill="#000000" font-family="sans-serif" font-size="14" font-weight="700" lengthAdjust="spacing" textLength="351.4629" x="354.7342" y="22.9951">UML-&#1076;&#1080;&#1072;&#1075;&#1088;&#1072;&#1084;&#1084;&#1072; &#1082;&#1083;&#1072;&#1089;&#1089;&#1086;&#1074; &#1089;&#1080;&#1089;&#1090;&#1077;&#1084;&#1099; cppQuest</text></g><!--class User--><g class="entity" data-qualified-name="User" data-source-line="9" id="ent0002"><rect fill="#F1F1F1" height="194.6719" rx="2.5" ry="2.5" style="stroke:#181818;stroke-width:0.5;" width="213.5713" x="514.01" y="266.3769"/><ellipse cx="600.5906" cy="282.3769" fill="#ADD1B2" rx="11" ry="11" style="stroke:#181818;stroke-width:1;"/><path d="M603.5593,288.0175 Q602.9812,288.3144 602.3406,288.455 Q601.6999,288.6113 600.9968,288.6113 Q598.4968,288.6113 597.1687,286.9706 Q595.8562,285.3144 595.8562,282.1894 Q595.8562,279.0644 597.1687,277.4081 Q598.4968,275.7519 600.9968,275.7519 Q601.6999,275.7519 602.3406,275.9081 Q602.9968,276.0644 603.5593,276.3613 L603.5593,279.08 Q602.9343,278.5019 602.3406,278.2363 Q601.7468,277.955 601.1218,277.955 Q599.7781,277.955 599.0906,279.0331 Q598.4031,280.0956 598.4031,282.1894 Q598.4031,284.2831 599.0906,285.3613 Q599.7781,286.4238 601.1218,286.4238 Q601.7468,286.4238 602.3406,286.1581 Q602.9343,285.8769 603.5593,285.2988 L603.5593,288.0175 Z " fill="#000000"/><text fill="#000000" font-family="sans-serif" font-size="14" lengthAdjust="spacing" textLength="31.9102" x="621.0906" y="287.2236">User</text><line style="stroke:#181818;stroke-width:0.5;" x1="515.01" x2="726.5813" y1="298.3769" y2="298.3769"/><text fill="#000000" font-family="sans-serif" font-size="14" lengthAdjust="spacing" textLength="56.6152" x="520.01" y="315.372">+Id : int</text><text fill="#000000" font-family="sans-serif" font-size="14" lengthAdjust="spacing" textLength="112.54" x="520.01" y="331.6689">+PublicId : Guid</text><text fill="#000000" font-family="sans-serif" font-size="14" lengthAdjust="spacing" textLength="137.3203" x="520.01" y="347.9657">+FirstName : string</text><text fill="#000000" font-family="sans-serif" font-size="14" lengthAdjust="spacing" textLength="136.001" x="520.01" y="364.2626">+LastName : string</text><text fill="#000000" font-family="sans-serif" font-size="14" lengthAdjust="spacing" textLength="142.0713" x="520.01" y="380.5595">+IsuNumber : string</text><text fill="#000000" font-family="sans-serif" font-size="14" lengthAdjust="spacing" textLength="167.0771" x="520.01" y="396.8564">+PasswordHash : string</text><text fill="#000000" font-family="sans-serif" font-size="14" lengthAdjust="spacing" textLength="111.542" x="520.01" y="413.1532">+IsAdmin : bool</text><text fill="#000000" font-family="sans-serif" font-size="14" lengthAdjust="spacing" textLength="184.3379" x="520.01" y="429.4501">+RegisteredAt : DateTime</text><text fill="#000000" font-family="sans-serif" font-size="14" lengthAdjust="spacing" textLength="201.5713" x="520.01" y="445.747">+LastLoginDate : DateTime?</text><line style="stroke:#181818;stroke-width:0.5;" x1="515.01" x2="726.5813" y1="453.0488" y2="453.0488"/></g><!--class GamificationProfile--><g class="entity" data-qualified-name="GamificationProfile" data-source-line="21" id="ent0003"><rect fill="#F1F1F1" height="162.0781" rx="2.5" ry="2.5" style="stroke:#181818;stroke-width:0.5;" width="164.9521" x="426.32" y="44.2969"/><ellipse cx="441.32" cy="60.2969" fill="#ADD1B2" rx="11" ry="11" style="stroke:#181818;stroke-width:1;"/><path d="M444.2888,65.9375 Q443.7106,66.2344 443.07,66.375 Q442.4294,66.5313 441.7263,66.5313 Q439.2263,66.5313 437.8981,64.8906 Q436.5856,63.2344 436.5856,60.1094 Q436.5856,56.9844 437.8981,55.3281 Q439.2263,53.6719 441.7263,53.6719 Q442.4294,53.6719 443.07,53.8281 Q443.7263,53.9844 444.2888,54.2813 L444.2888,57 Q443.6638,56.4219 443.07,56.1563 Q442.4763,55.875 441.8513,55.875 Q440.5075,55.875 439.82,56.9531 Q439.1325,58.0156 439.1325,60.1094 Q439.1325,62.2031 439.82,63.2813 Q440.5075,64.3438 441.8513,64.3438 Q442.4763,64.3438 443.07,64.0781 Q443.6638,63.7969 444.2888,63.2188 L444.2888,65.9375 Z " fill="#000000"/><text fill="#000000" font-family="sans-serif" font-size="14" lengthAdjust="spacing" textLength="132.9521" x="455.32" y="65.1436">GamificationProfile</text><line style="stroke:#181818;stroke-width:0.5;" x1="427.32" x2="590.2721" y1="76.2969" y2="76.2969"/><text fill="#000000" font-family="sans-serif" font-size="14" lengthAdjust="spacing" textLength="88.5254" x="432.32" y="93.292">+UserId : int</text><text fill="#000000" font-family="sans-serif" font-size="14" lengthAdjust="spacing" textLength="62.0771" x="432.32" y="109.5889">+Xp : int</text><text fill="#000000" font-family="sans-serif" font-size="14" lengthAdjust="spacing" textLength="80.8008" x="432.32" y="125.8857">+Level : int</text><text fill="#000000" font-family="sans-serif" font-size="14" lengthAdjust="spacing" textLength="81.9971" x="432.32" y="142.1826">+Coins : int</text><text fill="#000000" font-family="sans-serif" font-size="14" lengthAdjust="spacing" textLength="76.9727" x="432.32" y="158.4795">+Keys : int</text><text fill="#000000" font-family="sans-serif" font-size="14" lengthAdjust="spacing" textLength="142.167" x="432.32" y="174.7764">+CurrentStreak : int</text><text fill="#000000" font-family="sans-serif" font-size="14" lengthAdjust="spacing" textLength="117.9746" x="432.32" y="191.0732">+MaxStreak : int</text><line style="stroke:#181818;stroke-width:0.5;" x1="427.32" x2="590.2721" y1="198.375" y2="198.375"/></g><!--class ParagraphReadingStats--><g class="entity" data-qualified-name="ParagraphReadingStats" data-source-line="31" id="ent0004"><rect fill="#F1F1F1" height="162.0781" rx="2.5" ry="2.5" style="stroke:#181818;stroke-width:0.5;" width="215.3418" x="626.12" y="44.2969"/><ellipse cx="649.1343" cy="60.2969" fill="#ADD1B2" rx="11" ry="11" style="stroke:#181818;stroke-width:1;"/><path d="M652.1031,65.9375 Q651.5249,66.2344 650.8843,66.375 Q650.2437,66.5313 649.5406,66.5313 Q647.0406,66.5313 645.7124,64.8906 Q644.3999,63.2344 644.3999,60.1094 Q644.3999,56.9844 645.7124,55.3281 Q647.0406,53.6719 649.5406,53.6719 Q650.2437,53.6719 650.8843,53.8281 Q651.5406,53.9844 652.1031,54.2813 L652.1031,57 Q651.4781,56.4219 650.8843,56.1563 Q650.2906,55.875 649.6656,55.875 Q648.3218,55.875 647.6343,56.9531 Q646.9468,58.0156 646.9468,60.1094 Q646.9468,62.2031 647.6343,63.2813 Q648.3218,64.3438 649.6656,64.3438 Q650.2906,64.3438 650.8843,64.0781 Q651.4781,63.7969 652.1031,63.2188 L652.1031,65.9375 Z " fill="#000000"/><text fill="#000000" font-family="sans-serif" font-size="14" lengthAdjust="spacing" textLength="165.5322" x="664.9153" y="65.1436">ParagraphReadingStats</text><line style="stroke:#181818;stroke-width:0.5;" x1="627.12" x2="840.4618" y1="76.2969" y2="76.2969"/><text fill="#000000" font-family="sans-serif" font-size="14" lengthAdjust="spacing" textLength="88.5254" x="632.12" y="93.292">+UserId : int</text><text fill="#000000" font-family="sans-serif" font-size="14" lengthAdjust="spacing" textLength="150.8896" x="632.12" y="109.5889">+ParagraphId : string</text><text fill="#000000" font-family="sans-serif" font-size="14" lengthAdjust="spacing" textLength="194.9473" x="632.12" y="125.8857">+TotalReadingSeconds : int</text><text fill="#000000" font-family="sans-serif" font-size="14" lengthAdjust="spacing" textLength="203.3418" x="632.12" y="142.1826">+ReadingSessionsCount : int</text><text fill="#000000" font-family="sans-serif" font-size="14" lengthAdjust="spacing" textLength="155.7842" x="632.12" y="158.4795">+CodeRunsCount : int</text><text fill="#000000" font-family="sans-serif" font-size="14" lengthAdjust="spacing" textLength="134.6611" x="632.12" y="174.7764">+ScrollPixels : long</text><text fill="#000000" font-family="sans-serif" font-size="14" lengthAdjust="spacing" textLength="176.7021" x="632.12" y="191.0732">+SrNextDue : DateTime?</text><line style="stroke:#181818;stroke-width:0.5;" x1="627.12" x2="840.4618" y1="198.375" y2="198.375"/></g><!--class ParagraphTestStats--><g class="entity" data-qualified-name="ParagraphTestStats" data-source-line="41" id="ent0005"><rect fill="#F1F1F1" height="145.7813" rx="2.5" ry="2.5" style="stroke:#181818;stroke-width:0.5;" width="206.9131" x="272.33" y="290.8169"/><ellipse cx="303.9299" cy="306.8169" fill="#ADD1B2" rx="11" ry="11" style="stroke:#181818;stroke-width:1;"/><path d="M306.8987,312.4575 Q306.3205,312.7544 305.6799,312.895 Q305.0393,313.0513 304.3362,313.0513 Q301.8362,313.0513 300.508,311.4106 Q299.1955,309.7544 299.1955,306.6294 Q299.1955,303.5044 300.508,301.8481 Q301.8362,300.1919 304.3362,300.1919 Q305.0393,300.1919 305.6799,300.3481 Q306.3362,300.5044 306.8987,300.8013 L306.8987,303.52 Q306.2737,302.9419 305.6799,302.6763 Q305.0862,302.395 304.4612,302.395 Q303.1174,302.395 302.4299,303.4731 Q301.7424,304.5356 301.7424,306.6294 Q301.7424,308.7231 302.4299,309.8013 Q303.1174,310.8638 304.4612,310.8638 Q305.0862,310.8638 305.6799,310.5981 Q306.2737,310.3169 306.8987,309.7388 L306.8987,312.4575 Z " fill="#000000"/><text fill="#000000" font-family="sans-serif" font-size="14" lengthAdjust="spacing" textLength="138.0244" x="321.6188" y="311.6636">ParagraphTestStats</text><line style="stroke:#181818;stroke-width:0.5;" x1="273.33" x2="478.2431" y1="322.8169" y2="322.8169"/><text fill="#000000" font-family="sans-serif" font-size="14" lengthAdjust="spacing" textLength="88.5254" x="278.33" y="339.812">+UserId : int</text><text fill="#000000" font-family="sans-serif" font-size="14" lengthAdjust="spacing" textLength="108.5" x="278.33" y="356.1089">+TestId : string</text><text fill="#000000" font-family="sans-serif" font-size="14" lengthAdjust="spacing" textLength="114.1191" x="278.33" y="372.4057">+BestScore : int</text><text fill="#000000" font-family="sans-serif" font-size="14" lengthAdjust="spacing" textLength="149.6523" x="278.33" y="388.7026">+AttemptsCount : int</text><text fill="#000000" font-family="sans-serif" font-size="14" lengthAdjust="spacing" textLength="112.2803" x="278.33" y="404.9995">+LastScore : int</text><text fill="#000000" font-family="sans-serif" font-size="14" lengthAdjust="spacing" textLength="194.9131" x="278.33" y="421.2964">+LastAttemptAt : DateTime</text><line style="stroke:#181818;stroke-width:0.5;" x1="273.33" x2="478.2431" y1="428.5981" y2="428.5981"/></g><!--class TestAttempt--><g class="entity" data-qualified-name="TestAttempt" data-source-line="50" id="ent0006"><rect fill="#F1F1F1" height="162.0781" rx="2.5" ry="2.5" style="stroke:#181818;stroke-width:0.5;" width="176.2813" x="762.65" y="282.6669"/><ellipse cx="803.3677" cy="298.6669" fill="#ADD1B2" rx="11" ry="11" style="stroke:#181818;stroke-width:1;"/><path d="M806.3364,304.3075 Q805.7583,304.6044 805.1177,304.745 Q804.4771,304.9012 803.7739,304.9012 Q801.2739,304.9012 799.9458,303.2606 Q798.6333,301.6044 798.6333,298.4794 Q798.6333,295.3544 799.9458,293.6981 Q801.2739,292.0419 803.7739,292.0419 Q804.4771,292.0419 805.1177,292.1981 Q805.7739,292.3544 806.3364,292.6512 L806.3364,295.37 Q805.7114,294.7919 805.1177,294.5262 Q804.5239,294.245 803.8989,294.245 Q802.5552,294.245 801.8677,295.3231 Q801.1802,296.3856 801.1802,298.4794 Q801.1802,300.5731 801.8677,301.6512 Q802.5552,302.7137 803.8989,302.7137 Q804.5239,302.7137 805.1177,302.4481 Q805.7114,302.1669 806.3364,301.5887 L806.3364,304.3075 Z " fill="#000000"/><text fill="#000000" font-family="sans-serif" font-size="14" lengthAdjust="spacing" textLength="87.1309" x="823.0827" y="303.5136">TestAttempt</text><line style="stroke:#181818;stroke-width:0.5;" x1="763.65" x2="937.9313" y1="314.6669" y2="314.6669"/><text fill="#000000" font-family="sans-serif" font-size="14" lengthAdjust="spacing" textLength="56.6152" x="768.65" y="331.662">+Id : int</text><text fill="#000000" font-family="sans-serif" font-size="14" lengthAdjust="spacing" textLength="108.5" x="768.65" y="347.9589">+TestId : string</text><text fill="#000000" font-family="sans-serif" font-size="14" lengthAdjust="spacing" textLength="83.1182" x="768.65" y="364.2557">+Score : int</text><text fill="#000000" font-family="sans-serif" font-size="14" lengthAdjust="spacing" textLength="154.1094" x="768.65" y="380.5526">+CorrectAnswers : int</text><text fill="#000000" font-family="sans-serif" font-size="14" lengthAdjust="spacing" textLength="148.5859" x="768.65" y="396.8495">+TotalQuestions : int</text><text fill="#000000" font-family="sans-serif" font-size="14" lengthAdjust="spacing" textLength="119.041" x="768.65" y="413.1464">+TimeSpent : int</text><text fill="#000000" font-family="sans-serif" font-size="14" lengthAdjust="spacing" textLength="164.2813" x="768.65" y="429.4432">+CreatedAt : DateTime</text><line style="stroke:#181818;stroke-width:0.5;" x1="763.65" x2="937.9313" y1="436.745" y2="436.745"/></g><!--class QuestionProgress--><g class="entity" data-qualified-name="QuestionProgress" data-source-line="60" id="ent0007"><rect fill="#F1F1F1" height="145.7813" rx="2.5" ry="2.5" style="stroke:#181818;stroke-width:0.5;" width="189.126" x="417.23" y="521.0469"/><ellipse cx="447.4856" cy="537.0469" fill="#ADD1B2" rx="11" ry="11" style="stroke:#181818;stroke-width:1;"/><path d="M450.4544,542.6875 Q449.8762,542.9844 449.2356,543.125 Q448.595,543.2813 447.8919,543.2813 Q445.3919,543.2813 444.0637,541.6406 Q442.7512,539.9844 442.7512,536.8594 Q442.7512,533.7344 444.0637,532.0781 Q445.3919,530.4219 447.8919,530.4219 Q448.595,530.4219 449.2356,530.5781 Q449.8919,530.7344 450.4544,531.0313 L450.4544,533.75 Q449.8294,533.1719 449.2356,532.9063 Q448.6419,532.625 448.0169,532.625 Q446.6731,532.625 445.9856,533.7031 Q445.2981,534.7656 445.2981,536.8594 Q445.2981,538.9531 445.9856,540.0313 Q446.6731,541.0938 448.0169,541.0938 Q448.6419,541.0938 449.2356,540.8281 Q449.8294,540.5469 450.4544,539.9688 L450.4544,542.6875 Z " fill="#000000"/><text fill="#000000" font-family="sans-serif" font-size="14" lengthAdjust="spacing" textLength="123.2246" x="464.8758" y="541.8936">QuestionProgress</text><line style="stroke:#181818;stroke-width:0.5;" x1="418.23" x2="605.356" y1="553.0469" y2="553.0469"/><text fill="#000000" font-family="sans-serif" font-size="14" lengthAdjust="spacing" textLength="88.5254" x="423.23" y="570.042">+UserId : int</text><text fill="#000000" font-family="sans-serif" font-size="14" lengthAdjust="spacing" textLength="108.5" x="423.23" y="586.3389">+TestId : string</text><text fill="#000000" font-family="sans-serif" font-size="14" lengthAdjust="spacing" textLength="119.2324" x="423.23" y="602.6357">+QuestionId : int</text><text fill="#000000" font-family="sans-serif" font-size="14" lengthAdjust="spacing" textLength="118.3301" x="423.23" y="618.9326">+IsCorrect : bool</text><text fill="#000000" font-family="sans-serif" font-size="14" lengthAdjust="spacing" textLength="140.6836" x="423.23" y="635.2295">+CorrectStreak : int</text><text fill="#000000" font-family="sans-serif" font-size="14" lengthAdjust="spacing" textLength="177.126" x="423.23" y="651.5264">+NextDueAt : DateTime?</text><line style="stroke:#181818;stroke-width:0.5;" x1="418.23" x2="605.356" y1="658.8281" y2="658.8281"/></g><!--class ActivityLog--><g class="entity" data-qualified-name="ActivityLog" data-source-line="69" id="ent0008"><rect fill="#F1F1F1" height="129.4844" rx="2.5" ry="2.5" style="stroke:#181818;stroke-width:0.5;" width="176.2813" x="641.65" y="529.1969"/><ellipse cx="686.6134" cy="545.1969" fill="#ADD1B2" rx="11" ry="11" style="stroke:#181818;stroke-width:1;"/><path d="M689.5821,550.8375 Q689.004,551.1344 688.3634,551.275 Q687.7228,551.4313 687.0196,551.4313 Q684.5196,551.4313 683.1915,549.7906 Q681.879,548.1344 681.879,545.0094 Q681.879,541.8844 683.1915,540.2281 Q684.5196,538.5719 687.0196,538.5719 Q687.7228,538.5719 688.3634,538.7281 Q689.0196,538.8844 689.5821,539.1813 L689.5821,541.9 Q688.9571,541.3219 688.3634,541.0563 Q687.7696,540.775 687.1446,540.775 Q685.8009,540.775 685.1134,541.8531 Q684.4259,542.9156 684.4259,545.0094 Q684.4259,547.1031 685.1134,548.1813 Q685.8009,549.2438 687.1446,549.2438 Q687.7696,549.2438 688.3634,548.9781 Q688.9571,548.6969 689.5821,548.1188 L689.5821,550.8375 Z " fill="#000000"/><text fill="#000000" font-family="sans-serif" font-size="14" lengthAdjust="spacing" textLength="77.8545" x="707.1134" y="550.0436">ActivityLog</text><line style="stroke:#181818;stroke-width:0.5;" x1="642.65" x2="816.9313" y1="561.1969" y2="561.1969"/><text fill="#000000" font-family="sans-serif" font-size="14" lengthAdjust="spacing" textLength="56.6152" x="647.65" y="578.192">+Id : int</text><text fill="#000000" font-family="sans-serif" font-size="14" lengthAdjust="spacing" textLength="143.9648" x="647.65" y="594.4889">+ActionType : string</text><text fill="#000000" font-family="sans-serif" font-size="14" lengthAdjust="spacing" textLength="111.6309" x="647.65" y="610.7857">+XpEarned : int</text><text fill="#000000" font-family="sans-serif" font-size="14" lengthAdjust="spacing" textLength="131.5508" x="647.65" y="627.0826">+CoinsEarned : int</text><text fill="#000000" font-family="sans-serif" font-size="14" lengthAdjust="spacing" textLength="164.2813" x="647.65" y="643.3795">+CreatedAt : DateTime</text><line style="stroke:#181818;stroke-width:0.5;" x1="642.65" x2="816.9313" y1="650.6813" y2="650.6813"/></g><!--class UserPurchase--><g class="entity" data-qualified-name="UserPurchase" data-source-line="77" id="ent0009"><rect fill="#F1F1F1" height="96.8906" rx="2.5" ry="2.5" style="stroke:#181818;stroke-width:0.5;" width="193.583" x="7" y="76.8869"/><ellipse cx="51.5225" cy="92.8869" fill="#ADD1B2" rx="11" ry="11" style="stroke:#181818;stroke-width:1;"/><path d="M54.4912,98.5275 Q53.9131,98.8244 53.2725,98.965 Q52.6318,99.1212 51.9287,99.1212 Q49.4287,99.1212 48.1006,97.4806 Q46.7881,95.8244 46.7881,92.6994 Q46.7881,89.5744 48.1006,87.9181 Q49.4287,86.2619 51.9287,86.2619 Q52.6318,86.2619 53.2725,86.4181 Q53.9287,86.5744 54.4912,86.8712 L54.4912,89.59 Q53.8662,89.0119 53.2725,88.7462 Q52.6787,88.465 52.0537,88.465 Q50.71,88.465 50.0225,89.5431 Q49.335,90.6056 49.335,92.6994 Q49.335,94.7931 50.0225,95.8712 Q50.71,96.9337 52.0537,96.9337 Q52.6787,96.9337 53.2725,96.6681 Q53.8662,96.3869 54.4912,95.8087 L54.4912,98.5275 Z " fill="#000000"/><text fill="#000000" font-family="sans-serif" font-size="14" lengthAdjust="spacing" textLength="96.0381" x="72.0225" y="97.7336">UserPurchase</text><line style="stroke:#181818;stroke-width:0.5;" x1="8" x2="199.583" y1="108.8869" y2="108.8869"/><text fill="#000000" font-family="sans-serif" font-size="14" lengthAdjust="spacing" textLength="56.6152" x="13" y="125.882">+Id : int</text><text fill="#000000" font-family="sans-serif" font-size="14" lengthAdjust="spacing" textLength="110.4209" x="13" y="142.1789">+ItemId : string</text><text fill="#000000" font-family="sans-serif" font-size="14" lengthAdjust="spacing" textLength="181.583" x="13" y="158.4757">+PurchasedAt : DateTime</text><line style="stroke:#181818;stroke-width:0.5;" x1="8" x2="199.583" y1="165.7775" y2="165.7775"/></g><!--class PageFeedback--><g class="entity" data-qualified-name="PageFeedback" data-source-line="83" id="ent0010"><rect fill="#F1F1F1" height="129.4844" rx="2.5" ry="2.5" style="stroke:#181818;stroke-width:0.5;" width="176.2813" x="876.65" y="60.5969"/><ellipse cx="910.6955" cy="76.5969" fill="#ADD1B2" rx="11" ry="11" style="stroke:#181818;stroke-width:1;"/><path d="M913.6642,82.2375 Q913.0861,82.5344 912.4455,82.675 Q911.8048,82.8312 911.1017,82.8312 Q908.6017,82.8312 907.2736,81.1906 Q905.9611,79.5344 905.9611,76.4094 Q905.9611,73.2844 907.2736,71.6281 Q908.6017,69.9719 911.1017,69.9719 Q911.8048,69.9719 912.4455,70.1281 Q913.1017,70.2844 913.6642,70.5812 L913.6642,73.3 Q913.0392,72.7219 912.4455,72.4562 Q911.8517,72.175 911.2267,72.175 Q909.883,72.175 909.1955,73.2531 Q908.508,74.3156 908.508,76.4094 Q908.508,78.5031 909.1955,79.5812 Q909.883,80.6437 911.2267,80.6437 Q911.8517,80.6437 912.4455,80.3781 Q913.0392,80.0969 913.6642,79.5187 L913.6642,82.2375 Z " fill="#000000"/><text fill="#000000" font-family="sans-serif" font-size="14" lengthAdjust="spacing" textLength="101.958" x="928.9278" y="81.4436">PageFeedback</text><line style="stroke:#181818;stroke-width:0.5;" x1="877.65" x2="1051.9313" y1="92.5969" y2="92.5969"/><text fill="#000000" font-family="sans-serif" font-size="14" lengthAdjust="spacing" textLength="56.6152" x="882.65" y="109.592">+Id : int</text><text fill="#000000" font-family="sans-serif" font-size="14" lengthAdjust="spacing" textLength="113.0732" x="882.65" y="125.8889">+PageId : string</text><text fill="#000000" font-family="sans-serif" font-size="14" lengthAdjust="spacing" textLength="89.0449" x="882.65" y="142.1857">+Rating : int</text><text fill="#000000" font-family="sans-serif" font-size="14" lengthAdjust="spacing" textLength="134.1279" x="882.65" y="158.4826">+Comment : string</text><text fill="#000000" font-family="sans-serif" font-size="14" lengthAdjust="spacing" textLength="164.2813" x="882.65" y="174.7795">+CreatedAt : DateTime</text><line style="stroke:#181818;stroke-width:0.5;" x1="877.65" x2="1051.9313" y1="182.0812" y2="182.0812"/></g><!--class ShopItem--><g class="entity" data-qualified-name="ShopItem" data-source-line="91" id="ent0011"><rect fill="#F1F1F1" height="113.1875" rx="2.5" ry="2.5" style="stroke:#181818;stroke-width:0.5;" width="156.0469" x="235.77" y="68.7369"/><ellipse cx="276.4046" cy="84.7369" fill="#ADD1B2" rx="11" ry="11" style="stroke:#181818;stroke-width:1;"/><path d="M279.3734,90.3775 Q278.7952,90.6744 278.1546,90.815 Q277.514,90.9712 276.8109,90.9712 Q274.3109,90.9712 272.9827,89.3306 Q271.6702,87.6744 271.6702,84.5494 Q271.6702,81.4244 272.9827,79.7681 Q274.3109,78.1119 276.8109,78.1119 Q277.514,78.1119 278.1546,78.2681 Q278.8109,78.4244 279.3734,78.7212 L279.3734,81.44 Q278.7484,80.8619 278.1546,80.5962 Q277.5609,80.315 276.9359,80.315 Q275.5921,80.315 274.9046,81.3931 Q274.2171,82.4556 274.2171,84.5494 Q274.2171,86.6431 274.9046,87.7212 Q275.5921,88.7837 276.9359,88.7837 Q277.5609,88.7837 278.1546,88.5181 Q278.7484,88.2369 279.3734,87.6587 L279.3734,90.3775 Z " fill="#000000"/><text fill="#000000" font-family="sans-serif" font-size="14" lengthAdjust="spacing" textLength="67.0811" x="296.1012" y="89.5836">ShopItem</text><line style="stroke:#181818;stroke-width:0.5;" x1="236.77" x2="390.8169" y1="100.7369" y2="100.7369"/><text fill="#000000" font-family="sans-serif" font-size="14" lengthAdjust="spacing" textLength="78.5518" x="241.77" y="117.732">+Id : string</text><text fill="#000000" font-family="sans-serif" font-size="14" lengthAdjust="spacing" textLength="106.8389" x="241.77" y="134.0289">+Name : string</text><text fill="#000000" font-family="sans-serif" font-size="14" lengthAdjust="spacing" textLength="113.1211" x="241.77" y="150.3257">+CostCoins : int</text><text fill="#000000" font-family="sans-serif" font-size="14" lengthAdjust="spacing" textLength="144.0469" x="241.77" y="166.6226">+RequiredLevel : int</text><line style="stroke:#181818;stroke-width:0.5;" x1="236.77" x2="390.8169" y1="173.9244" y2="173.9244"/></g><!--link User to QuestionProgress--><g class="link" data-entity-1="ent0002" data-entity-2="ent0007" data-link-type="association" data-source-line="101" id="lnk13"><path codeLine="101" d="M560.18,461.3469 C560.18,481.1969 560.18,501.7669 560.18,520.5969" fill="none" id="User-QuestionProgress" style="stroke:#181818;stroke-width:1;"/><text fill="#000000" font-family="sans-serif" font-size="13" lengthAdjust="spacing" textLength="23.0356" x="536.18" y="487.0438">1..*</text></g><!--link User to ActivityLog--><g class="link" data-entity-1="ent0002" data-entity-2="ent0008" data-link-type="association" data-source-line="102" id="lnk15"><path codeLine="102" d="M684.61,461.3469 C684.61,484.1369 684.61,507.8769 684.61,528.8569" fill="none" id="User-ActivityLog" style="stroke:#181818;stroke-width:1;"/><text fill="#000000" font-family="sans-serif" font-size="13" lengthAdjust="spacing" textLength="23.0356" x="660.61" y="491.1638">1..*</text></g><!--link ParagraphTestStats to User--><g class="link" data-entity-1="ent0005" data-entity-2="ent0002" data-link-type="association" data-source-line="104" id="lnk16"><path codeLine="104" d="M479.69,363.8269 C490.91,363.8269 502.34,363.8269 513.59,363.8269" fill="none" id="ParagraphTestStats-User" style="stroke:#181818;stroke-width:1;"/><text fill="#000000" font-family="sans-serif" font-size="13" lengthAdjust="spacing" textLength="23.0356" x="485.14" y="376.8938">1..*</text></g><!--link User to TestAttempt--><g class="link" data-entity-1="ent0002" data-entity-2="ent0006" data-link-type="association" data-source-line="105" id="lnk18"><path codeLine="105" d="M728.05,363.8269 C739.52,363.8269 751.11,363.8269 762.33,363.8269" fill="none" id="User-TestAttempt" style="stroke:#181818;stroke-width:1;"/><text fill="#000000" font-family="sans-serif" font-size="13" lengthAdjust="spacing" textLength="23.0356" x="733.69" y="376.8938">1..*</text></g><!--link GamificationProfile to User--><g class="link" data-entity-1="ent0003" data-entity-2="ent0002" data-link-type="association" data-source-line="107" id="lnk19"><path codeLine="107" d="M552.64,206.7069 C552.64,225.8569 552.64,246.4569 552.64,266.2369" fill="none" id="GamificationProfile-User" style="stroke:#181818;stroke-width:1;"/><text fill="#000000" font-family="sans-serif" font-size="13" lengthAdjust="spacing" textLength="24.8066" x="527.64" y="232.5338">1..1</text></g><!--link ParagraphReadingStats to User--><g class="link" data-entity-1="ent0004" data-entity-2="ent0002" data-link-type="association" data-source-line="108" id="lnk20"><path codeLine="108" d="M676.85,206.7069 C676.85,225.8569 676.85,246.4569 676.85,266.2369" fill="none" id="ParagraphReadingStats-User" style="stroke:#181818;stroke-width:1;"/><text fill="#000000" font-family="sans-serif" font-size="13" lengthAdjust="spacing" textLength="23.0356" x="652.85" y="232.5338">1..*</text></g><!--link UserPurchase to User--><g class="link" data-entity-1="ent0009" data-entity-2="ent0002" data-link-type="association" data-source-line="109" id="lnk21"><path codeLine="109" d="M103.79,173.8969 C103.79,218.8669 103.79,278.8269 103.79,278.8269 C103.79,278.8269 362.24,278.8269 513.67,278.8269" fill="none" id="UserPurchase-User" style="stroke:#181818;stroke-width:1;"/><text fill="#000000" font-family="sans-serif" font-size="13" lengthAdjust="spacing" textLength="23.0356" x="232.27" y="274.8938">1..*</text></g><!--link PageFeedback to User--><g class="link" data-entity-1="ent0010" data-entity-2="ent0002" data-link-type="association" data-source-line="110" id="lnk22"><path codeLine="110" d="M907.79,190.4669 C907.79,230.7569 907.79,274.8269 907.79,274.8269 C907.79,274.8269 809.59,274.8269 728.07,274.8269" fill="none" id="PageFeedback-User" style="stroke:#181818;stroke-width:1;"/><text fill="#000000" font-family="sans-serif" font-size="13" lengthAdjust="spacing" textLength="23.0356" x="836.11" y="270.8938">1..*</text></g><!--link UserPurchase to ShopItem--><g class="link" data-entity-1="ent0009" data-entity-2="ent0011" data-link-type="association" data-source-line="112" id="lnk24"><path codeLine="112" d="M200.8,125.8269 C212.41,125.8269 224.14,125.8269 235.44,125.8269" fill="none" id="UserPurchase-ShopItem" style="stroke:#181818;stroke-width:1;"/><text fill="#000000" font-family="sans-serif" font-size="13" lengthAdjust="spacing" textLength="23.0356" x="206.62" y="138.8938">1..*</text></g><?plantuml-src ZLNTRjCm5BxtK_WEQQY8tUu6bOwDYcugRIVjrarEKsk97MndFo2aRLnomLjmFMqWgZ5u1kUDE4xRn4so2LLgu-zyyVd_ga-uI9bY2GrYfdNN6CMdcO5-8CMOVmJwakYIekSib6TSH7J6OWsU9UO2p4KAL2epbuGOcL8ZwLGQ8nCQSWM1uLAWWPiOwD71e6D_s8MziNVv9Nu_uEU6sdlxszxaL_cL_MjlAVuiy71jVzg7_2iDqlHz1jeGKeHAZpGe-ebG-hmVqXtAXN7FmsmQyw10zZCUEcYFAsqEMGA8QSnFH0uTi1QmhxF3B9dYnJuwH7TdKeLlcPxNwDqmuGAngPInGqOGSMr0GTWr2Eyo0nEUmDhXG4PSED2plIAVrodjiuJFUC1ShOPApZZMgiZGvUfdUPnMpmCuXRWwzYGNkZg-WmllrCkK0c76HW4xgU03Thu1bG4DiRkHOkby12p4fCU66TqUKaajmAf64sbOl7uTSAn2BvuIrnfJrZsP2UEd4i8eQy3ZGCau7l9pYDrLiLmw6gj3E3UxsIErBUERu0mzaOSprr9uxTu8f8AAXOi2IMhgeRaUrvWEMh4tHwACp7bSCPhpt19EpK5FAhTUNQ7FG7crBGfVR8mhhOUZyt4A6uN6tflwo9RnhU_0YOmKTkg_wxP-qQVrzIfURsbMI7qgL-tSYCfhQ1SbvPIR2zofPjcwXTvCd2Jv4HsdRvWI4DRMfG4-MG-N-J1JmPnfQ7hkOoDhTLYJ7xjmo2BO0mYdB3XfKJIqrYuSeKAW2dj99CcoeHNdwHp6SvcwI3rtrQiDMUn9RMgwCe8F6SfwwAiFtawUKViT1VjFVet2liWlyozElfsMt-RVx2-xeFOMrVs-iDmLjIIaCM6TBEqi1Nw7RhzuiKNyPZUCf6MtEuf7SxF9ynUj4yEiPYPjyjl1VppXyxP9koWsY5jaOr1Qx1jzRx6JiajUjEM5Iz8_?></g></svg>